{"title":"Gremlins.2.The.New.Batch.1990.1080p.BluRay.X264-AMIABLE","uid":12022011,"size":8215444891,"categoryP":"video","categoryS":"hd___movies","magnet":"?xt=urn:btih:e52e1dd0faaa27ea2b566323ce625dcbc4d0b8f4&amp;dn=Gremlins.2.The.New.Batch.1990.1080p.BluRay.X264-AMIABLE&amp;tr=udp%3A%2F%2Ftracker.openbittorrent.com%3A80&amp;tr=udp%3A%2F%2Fopen.demonii.com%3A1337&amp;tr=udp%3A%2F%2Ftracker.coppersurfer.tk%3A6969&amp;tr=udp%3A%2F%2Fexodus.desync.com%3A6969","seeders":0,"leechers":0,"uploader":null,"files":3,"time":1434414020,"description":"Video\nID                                       : 1\nFormat                                   : AVC\nFormat/Info                              : Advanced Video Codec\nFormat profile                           : &lt;a class=&quot;__cf_email__&quot; href=&quot;/cdn-cgi/l/email-protection&quot; data-cfemail=&quot;93dbfaf4fbd3dfa7bda2&quot;&gt;[email&amp;#160;protected]&lt;/a&gt;&lt;script data-cfhash='f9e31' type=&quot;text/javascript&quot;&gt;\n/* &lt;![CDATA[ */!function(){try{var t=&quot;currentScript&quot;in document?document.currentScript:function(){for(var t=document.getElementsByTagName(&quot;script&quot;),e=t.length;e--;)if(t[e].getAttribute(&quot;data-cfhash&quot;))return t[e]}();if(t&amp;&amp;t.previousSibling){var e,r,n,i,c=t.previousSibling,a=c.getAttribute(&quot;data-cfemail&quot;);if(a){for(e=&quot;&quot;,r=parseInt(a.substr(0,2),16),n=2;a.length-n;n+=2)i=parseInt(a.substr(n,2),16)^r,e+=String.fromCharCode(i);e=document.createTextNode(e),c.parentNode.replaceChild(e,c)}t.parentNode.removeChild(t);}}catch(u){}}()/* ]]&gt; */&lt;/script&gt;\nFormat settings, CABAC                   : Yes\nFormat settings, ReFrames                : 4 frames\nCodec ID                                 : V_MPEG4/ISO/AVC\nDuration                                 : 1h 46mn\nBit rate                                 : 8 782 Kbps\nWidth                                    : 1 920 pixels\nHeight                                   : 1 080 pixels\nDisplay aspect ratio                     : 16:9\nFrame rate mode                          : Constant\nFrame rate                               : 23.976 fps\nColor space                              : YUV\nChroma subsampling                       : 4:2:0\nBit depth                                : 8 bits\nScan type                                : Progressive\nBits/(Pixel*Frame)                       : 0.177\nStream size                              : 6.38 GiB (83%)\nWriting library                          : x264 core 122 r2184 5c85e0a\nEncoding settings                        : cabac=1 / ref=4 / deblock=1:0:0 / analyse=0x3:0x113 / me=umh / subme=8 / psy=1 / psy_rd=1.00:0.00 / mixed_ref=1 / me_range=16 / chroma_me=1 / trellis=1 / 8x8dct=1 / cqm=0 / deadzone=21,11 / fast_pskip=1 / chroma_qp_offset=-2 / threads=12 / sliced_threads=0 / nr=0 / decimate=1 / interlaced=0 / bluray_compat=0 / constrained_intra=0 / bframes=3 / b_pyramid=2 / b_adapt=2 / b_bias=0 / direct=3 / weightb=1 / open_gop=0 / weightp=2 / keyint=240 / keyint_min=24 / scenecut=40 / intra_refresh=0 / rc_lookahead=50 / rc=2pass / mbtree=1 / bitrate=8782 / ratetol=1.0 / qcomp=0.60 / qpmin=0 / qpmax=69 / qpstep=4 / cplxblur=20.0 / qblur=0.5 / ip_ratio=1.40 / aq=1:1.00\nLanguage                                 : English\nDefault                                  : Yes\nForced                                   : No\n\nAudio\nID                                       : 2\nFormat                                   : DTS\nFormat/Info                              : Digital Theater Systems\nMode                                     : 16\nFormat settings, Endianness              : Big\nCodec ID                                 : A_DTS\nDuration                                 : 1h 46mn\nBit rate mode                            : Constant\nBit rate                                 : 1 509 Kbps\nChannel(s)                               : 6 channels\nChannel positions                        : Front: L C R, Side: L R, LFE\nSampling rate                            : 48.0 KHz\nBit depth                                : 24 bits\nCompression mode                         : Lossy\nStream size                              : 1.12 GiB (15%)\nLanguage                                 : English\nDefault                                  : Yes\nForced                                   : No\n\nText\nID                                       : 3\nFormat                                   : UTF-8\nCodec ID                                 : S_TEXT/UTF8\nCodec ID/Info                            : UTF-8 Plain Text\nLanguage                                 : English\nDefault                                  : No\nForced                                   : No\n\nMenu\n00:00:00.000                             : en:00:00:00.000\n00:06:01.361                             : en:00:06:01.361\n00:07:48.343                             : en:00:07:48.343\n00:13:14.419                             : en:00:13:14.419\n00:15:30.930                             : en:00:15:30.930\n00:18:42.288                             : en:00:18:42.288\n00:22:44.446                             : en:00:22:44.446\n00:24:26.090                             : en:00:24:26.090\n00:27:31.859                             : en:00:27:31.859\n00:33:01.897                             : en:00:33:01.897\n00:35:22.620                             : en:00:35:22.620\n00:38:53.957                             : en:00:38:53.957\n00:42:01.519                             : en:00:42:01.519\n00:45:02.325                             : en:00:45:02.325\n00:47:56.957                             : en:00:47:56.957\n00:51:52.109                             : en:00:51:52.109\n00:52:29.897                             : en:00:52:29.897\n00:57:52.177                             : en:00:57:52.177\n00:58:38.974                             : en:00:58:38.974\n01:03:01.736                             : en:01:03:01.736\n01:04:44.255                             : en:01:04:44.255\n01:06:45.460                             : en:01:06:45.460\n01:10:36.399                             : en:01:10:36.399\n01:14:01.479                             : en:01:14:01.479\n01:19:04.657                             : en:01:19:04.657\n01:21:18.290                             : en:01:21:18.290\n01:23:32.299                             : en:01:23:32.299\n01:27:51.266                             : en:01:27:51.266\n01:31:12.967                             : en:01:31:12.967\n01:34:54.147                             : en:01:34:54.147\n01:39:57.491                             : en:01:39:57.491\n01:41:41.095                             : en:01:41:41.095","torrent":{"xt":"urn:btih:e52e1dd0faaa27ea2b566323ce625dcbc4d0b8f4","amp;dn":"Gremlins.2.The.New.Batch.1990.1080p.BluRay.X264-AMIABLE","amp;tr":["udp%3A%2F%2Ftracker.openbittorrent.com%3A80","udp%3A%2F%2Fopen.demonii.com%3A1337","udp%3A%2F%2Ftracker.coppersurfer.tk%3A6969","udp%3A%2F%2Fexodus.desync.com%3A6969"],"infoHash":"e52e1dd0faaa27ea2b566323ce625dcbc4d0b8f4","infoHashBuffer":{"type":"Buffer","data":[229,46,29,208,250,170,39,234,43,86,99,35,206,98,93,203,196,208,184,244]},"announce":[],"urlList":[]}}